<svg width="14" height="14" viewBox="0 0 14 14" fill="none" xmlns="http://www.w3.org/2000/svg">
<path d="M1.52778 13.75C1.10764 13.75 0.747848 13.6003 0.448404 13.3008C0.14896 13.0014 -0.000507962 12.6419 1.29693e-06 12.2222V1.52778C1.29693e-06 1.10764 0.149724 0.747848 0.449168 0.448404C0.748612 0.14896 1.10815 -0.000507962 1.52778 1.29693e-06H12.2222C12.6424 1.29693e-06 13.0022 0.149724 13.3016 0.449168C13.601 0.748612 13.7505 1.10815 13.75 1.52778V12.2222C13.75 12.6424 13.6003 13.0022 13.3008 13.3016C13.0014 13.601 12.6419 13.7505 12.2222 13.75H1.52778ZM1.52778 12.2222H12.2222V1.52778H1.52778V12.2222ZM5.80556 9.75868C5.90741 9.75868 6.00289 9.74264 6.09201 9.71055C6.18113 9.67847 6.26389 9.62449 6.34028 9.54861L10.6753 5.21354C10.8154 5.0735 10.8854 4.90162 10.8854 4.69792C10.8854 4.49421 10.809 4.31597 10.6562 4.16319C10.5162 4.02315 10.338 3.95313 10.1215 3.95313C9.90509 3.95313 9.72685 4.02315 9.5868 4.16319L5.80556 7.94444L4.1441 6.28299C4.00405 6.14294 3.83218 6.07292 3.62847 6.07292C3.42477 6.07292 3.24653 6.14931 3.09375 6.30208C2.9537 6.44213 2.88368 6.62037 2.88368 6.83681C2.88368 7.05324 2.9537 7.23148 3.09375 7.37153L5.27083 9.54861C5.34722 9.625 5.42998 9.67898 5.5191 9.71055C5.60822 9.74213 5.7037 9.75817 5.80556 9.75868Z" fill="#3C6FCC"/>
</svg>
