<svg width="23" height="24" viewBox="0 0 23 24" fill="none" xmlns="http://www.w3.org/2000/svg">
<path d="M11.4998 23.1667C11.0866 23.1667 10.74 23.0267 10.46 22.7467C10.18 22.4667 10.0405 22.1206 10.0415 21.7083V5.41146L2.93213 12.5208C2.64046 12.8125 2.29387 12.9583 1.89234 12.9583C1.49081 12.9583 1.1447 12.8125 0.854003 12.5208C0.562337 12.2292 0.416504 11.8889 0.416504 11.5C0.416504 11.1111 0.562337 10.7708 0.854003 10.4792L10.479 0.854166C10.6248 0.708333 10.7828 0.605277 10.953 0.545C11.1231 0.484722 11.3054 0.454097 11.4998 0.453125C11.6943 0.453125 11.8829 0.48375 12.0657 0.545C12.2484 0.60625 12.4001 0.709305 12.5207 0.854166L22.1457 10.4792C22.4373 10.7708 22.5832 11.1111 22.5832 11.5C22.5832 11.8889 22.4373 12.2292 22.1457 12.5208C21.854 12.8125 21.5074 12.9583 21.1059 12.9583C20.7044 12.9583 20.3582 12.8125 20.0675 12.5208L12.9582 5.41146V21.7083C12.9582 22.1215 12.8182 22.4681 12.5382 22.7481C12.2582 23.0281 11.9121 23.1676 11.4998 23.1667Z" fill="#222222"/>
</svg>
