<svg width="60" height="16" viewBox="0 0 60 16" fill="none" xmlns="http://www.w3.org/2000/svg">
<g clip-path="url(#clip0_20_167)">
<mask id="mask0_20_167" style="mask-type:luminance" maskUnits="userSpaceOnUse" x="0" y="0" width="60" height="16">
<path d="M59.7795 0H0V15.5676H59.7795V0Z" fill="white"/>
</mask>
<g mask="url(#mask0_20_167)">
<path d="M55.6637 5.50368C53.9769 7.18164 50.3188 8.62073 48.5201 9.29711C46.062 10.221 44.9713 10.5462 43.5956 10.9952C42.0385 11.4989 38.9243 12.4429 38.9243 12.4429C45.3771 14.3684 49.9215 14.9498 49.9215 14.9498C49.9215 14.9498 52.04 14.2965 55.3958 12.5005C57.212 11.5766 58.1071 10.9549 58.746 10.3591C58.9822 10.1462 59.5893 9.51294 59.742 8.70132C59.7505 8.64087 59.7793 8.48831 59.7793 8.33578C59.7793 8.33578 59.7793 8.2293 59.7706 8.13431C59.768 8.02783 59.7476 7.95586 59.7476 7.95586C59.7476 7.95586 59.7132 7.76302 59.6642 7.62774C59.6152 7.49247 59.408 7.07516 59.0713 6.80461C58.8469 6.62328 58.4584 6.16851 57.0508 5.67346C56.5731 5.50653 55.7989 5.354 55.7989 5.354L55.6637 5.50368Z" fill="url(#paint0_linear_20_167)"/>
<path d="M59.7795 8.28976C59.7795 8.28976 59.7707 8.11132 59.7246 7.95876C59.6903 7.82348 59.6299 7.69398 59.5404 7.5587C59.4311 7.39755 59.2816 7.20756 59.0627 6.99746C58.896 6.84204 58.7144 6.70388 58.4987 6.55709C57.6178 5.98148 56.4811 5.65625 55.4766 5.51809C53.9196 5.31088 52.1322 5.34827 51.9623 5.34253C51.3866 5.33387 47.6741 5.36556 46.7183 5.38281C42.4787 5.46915 37.2895 5.48066 35.9309 5.48066C21.8971 5.544 15.7896 5.24179 8.99137 3.88041C3.20915 2.73203 0 1.6412 0 1.6412C5.1001 1.46564 34.8662 0.230903 40.2973 0.0841171C43.8516 -0.0166186 46.3758 -0.036767 48.3963 0.0783597C49.4325 0.135923 50.3968 0.225146 51.6055 0.429496C52.6904 0.616576 53.6776 0.930295 54.2504 1.14328C55.4595 1.59227 56.4782 2.23986 56.9818 2.90184C56.9818 2.90184 57.1317 3.05439 57.3331 3.32494C57.5604 3.63866 57.8222 4.0272 57.9117 4.1711C58.6482 5.28496 58.9965 5.98722 59.1175 6.23186C59.2498 6.48801 59.365 6.75571 59.4772 7.01475C59.5865 7.27375 59.6325 7.4292 59.6702 7.53856C59.7477 7.812 59.7678 8.06238 59.7707 8.11706L59.7795 8.28976Z" fill="#CE210F"/>
</g>
</g>
<defs>
<linearGradient id="paint0_linear_20_167" x1="53.5128" y1="3.46592" x2="45.9787" y2="16.5151" gradientUnits="userSpaceOnUse">
<stop stop-color="#E9EAF6"/>
<stop offset="0.0703" stop-color="#C7CBE8"/>
<stop offset="0.1814" stop-color="#96A0D1"/>
<stop offset="0.2774" stop-color="#7183C0"/>
<stop offset="0.3534" stop-color="#5972B6"/>
<stop offset="0.4" stop-color="#506CB3"/>
<stop offset="0.9" stop-color="#2E5C99"/>
</linearGradient>
<clipPath id="clip0_20_167">
<rect width="60" height="15.5676" fill="white"/>
</clipPath>
</defs>
</svg>
